<?xml version="1.0" standalone="no"?>
<!DOCTYPE svg PUBLIC "-//W3C//DTD SVG 20010904//EN"
 "http://www.w3.org/TR/2001/REC-SVG-20010904/DTD/svg10.dtd">
<svg version="1.0" xmlns="http://www.w3.org/2000/svg"
 width="514.000000pt" height="514.000000pt" viewBox="0 0 514.000000 514.000000"
 preserveAspectRatio="xMidYMid meet">
<metadata>
Created by potrace 1.11, written by Peter Selinger 2001-2013
</metadata>
<g transform="translate(0.000000,514.000000) scale(0.100000,-0.100000)"
fill="#000000" stroke="none">
<path d="M1310 4944 c-212 -128 -307 -191 -313 -206 -6 -18 -787 -4713 -787
-4733 0 -3 293 -5 651 -5 l651 0 300 180 c165 99 308 180 319 180 10 0 19 2
19 5 0 3 54 332 120 732 66 399 120 727 120 729 0 2 278 4 618 4 l617 0 300
180 c165 99 308 180 318 180 9 0 17 4 17 10 0 5 41 249 90 542 50 293 90 540
90 550 0 17 -42 18 -901 18 l-900 0 6 43 c4 23 17 101 28 172 l22 130 718 3
717 2 292 175 c160 96 299 175 310 175 10 0 21 6 23 13 6 16 185 1074 185
1092 0 13 -216 15 -1662 14 l-1663 -1 -305 -184z m3380 -51 c0 -10 -25 -163
-55 -341 -30 -177 -55 -324 -55 -327 0 -3 -452 -5 -1005 -5 -802 0 -1005 -3
-1005 -13 0 -7 -40 -262 -90 -566 -49 -305 -90 -556 -90 -558 0 -2 405 -3 900
-3 850 0 900 -1 900 -17 0 -16 -92 -569 -106 -636 l-6 -27 -898 0 c-496 0
-901 -4 -904 -9 -3 -4 -71 -406 -151 -892 -80 -486 -148 -894 -150 -906 l-5
-23 -440 0 c-345 0 -440 3 -440 13 -1 6 160 983 357 2170 l358 2157 1442 0
c1368 0 1443 -1 1443 -17z"/>
</g>
</svg>
