<?xml version="1.0" standalone="no"?>
<!DOCTYPE svg PUBLIC "-//W3C//DTD SVG 20010904//EN"
 "http://www.w3.org/TR/2001/REC-SVG-20010904/DTD/svg10.dtd">
<svg version="1.0" xmlns="http://www.w3.org/2000/svg"
 width="500.000000pt" height="500.000000pt" viewBox="0 0 500.000000 500.000000"
 preserveAspectRatio="xMidYMid meet">
<metadata>
Created by potrace 1.11, written by Peter Selinger 2001-2013
</metadata>
<g transform="translate(0.000000,500.000000) scale(0.100000,-0.100000)"
fill="#000000" stroke="none">
<path d="M1708 4995 c-1 -1 -61 -6 -133 -9 -125 -6 -164 -9 -257 -22 -24 -3
-50 -6 -58 -6 -8 0 -33 -4 -55 -9 -22 -4 -56 -11 -75 -14 -101 -17 -310 -88
-350 -119 -8 -6 -31 -20 -50 -30 -135 -73 -313 -233 -425 -382 -61 -81 -138
-207 -150 -245 -4 -13 -11 -28 -15 -34 -19 -28 -77 -235 -86 -312 -3 -26 -7
-51 -10 -54 -2 -4 -7 -38 -10 -76 -2 -37 -7 -78 -9 -89 -28 -132 -28 -1906 -1
-2179 13 -121 18 -169 22 -188 2 -12 11 -57 19 -100 61 -319 256 -617 543
-831 138 -103 330 -194 467 -221 329 -65 437 -70 1435 -70 685 0 929 5 1083
20 56 5 219 27 242 31 11 3 40 9 65 14 87 17 235 71 321 117 148 78 327 225
429 352 19 24 40 48 45 55 6 6 28 38 50 71 133 199 191 384 230 730 28 262 28
1980 -1 2215 -2 19 -6 51 -8 70 -32 263 -84 431 -186 601 -179 297 -489 543
-786 625 -152 41 -256 57 -529 81 -58 5 -1752 13 -1757 8z"/>
</g>
</svg>
