<svg xmlns="http://www.w3.org/2000/svg" width="666.667" height="666.667" preserveAspectRatio="xMidYMid meet" version="1.0" viewBox="0 0 500 500"><metadata>Created by potrace 1.11, written by Peter Selinger 2001-2013</metadata><g fill="#000" stroke="none"><path d="M2215 4984 c-502 -64 -944 -254 -1320 -567 -94 -78 -283 -274 -356 -367 -177 -228 -324 -499 -408 -755 -95 -291 -126 -482 -126 -790 0 -165 9 -324 19 -357 3 -7 7 -31 10 -54 8 -63 54 -262 77 -334 98 -300 238 -566 428 -810 91 -118 316 -340 438 -433 322 -245 723 -421 1098 -481 17 -2 66 -10 110 -17 109 -18 513 -17 630 0 101 15 110 17 180 31 28 6 59 12 70 14 11 2 40 9 65 16 25 7 50 13 55 14 71 14 317 113 450 181 249 127 450 274 640 468 61 62 121 126 135 143 50 60 118 151 163 219 26 39 51 75 57 82 5 7 10 14 10 17 0 2 19 37 43 78 152 260 275 650 304 963 10 103 10 408 1 505 -49 497 -251 971 -587 1375 -30 36 -244 250 -286 285 -280 237 -646 425 -1004 515 -100 25 -124 29 -231 45 -36 6 -78 13 -95 16 -65 12 -472 11 -570 -2z" transform="translate(0.000000,500.000000) scale(0.100000,-0.100000)"/></g></svg>