<svg xmlns="http://www.w3.org/2000/svg" width="666.667" height="666.667" preserveAspectRatio="xMidYMid meet" version="1.0" viewBox="0 0 500 500"><metadata>Created by potrace 1.11, written by Peter Selinger 2001-2013</metadata><g fill="#000" stroke="none"><path d="M2215 4984 c-373 -48 -711 -163 -1009 -346 -194 -118 -316 -216 -486 -387 -196 -198 -341 -402 -465 -655 -91 -186 -183 -455 -209 -611 -2 -16 -7 -43 -10 -60 -23 -122 -31 -232 -31 -425 0 -167 9 -319 20 -352 2 -7 6 -31 9 -54 8 -68 55 -265 83 -349 96 -294 233 -551 422 -795 84 -109 301 -327 411 -412 260 -201 523 -338 832 -432 240 -73 426 -100 688 -100 251 -1 352 9 598 58 310 63 713 260 1002 491 85 68 275 252 340 331 54 65 119 153 166 224 27 41 52 77 57 78 4 2 7 8 7 13 0 4 19 41 43 81 129 220 256 592 291 853 29 212 29 532 0 730 -5 34 -49 249 -58 280 -22 81 -34 117 -69 215 -91 255 -253 533 -446 765 -30 36 -245 250 -286 285 -53 45 -218 165 -285 207 -213 135 -472 246 -719 308 -100 25 -124 29 -231 45 -36 6 -78 13 -95 16 -65 12 -472 11 -570 -2z" transform="translate(0.000000,500.000000) scale(0.100000,-0.100000)"/></g></svg>