<?xml version="1.0" standalone="no"?>
<!DOCTYPE svg PUBLIC "-//W3C//DTD SVG 20010904//EN"
 "http://www.w3.org/TR/2001/REC-SVG-20010904/DTD/svg10.dtd">
<svg version="1.0" xmlns="http://www.w3.org/2000/svg"
 width="400.000000pt" height="400.000000pt" viewBox="0 0 400.000000 400.000000"
 preserveAspectRatio="xMidYMid meet">
<metadata>
Created by potrace 1.11, written by Peter Selinger 2001-2013
</metadata>
<g transform="translate(0.000000,400.000000) scale(0.100000,-0.100000)"
fill="#000000" stroke="none">
<path d="M0 2000 l0 -2000 2000 0 2000 0 0 2000 0 2000 -2000 0 -2000 0 0
-2000z m3050 1416 c0 -12 -78 -515 -95 -613 l-6 -33 -444 0 c-245 0 -445 -2
-445 -4 0 -3 -16 -100 -35 -218 -19 -117 -35 -219 -35 -225 0 -10 89 -13 409
-13 226 0 412 -3 414 -7 4 -8 -87 -584 -97 -609 -5 -12 -67 -14 -416 -14 -225
0 -410 -1 -410 -2 -1 -2 -40 -250 -88 -553 l-87 -550 -383 -3 c-302 -2 -382 0
-382 10 0 16 440 2818 446 2836 6 19 1654 18 1654 -2z"/>
</g>
</svg>
